<?xml version="1.0" standalone="no"?>
<!DOCTYPE svg PUBLIC "-//W3C//DTD SVG 20010904//EN"
 "http://www.w3.org/TR/2001/REC-SVG-20010904/DTD/svg10.dtd">
<svg version="1.0" xmlns="http://www.w3.org/2000/svg"
 width="700.000000pt" height="700.000000pt" viewBox="0 0 700.000000 700.000000"
 preserveAspectRatio="xMidYMid meet">
<metadata>
Created by potrace 1.11, written by Peter Selinger 2001-2013
</metadata>
<g transform="translate(0.000000,700.000000) scale(0.100000,-0.100000)"
fill="#000000" stroke="none">
<path d="M10 3500 l0 -3490 3490 0 3490 0 0 3490 0 3490 -3490 0 -3490 0 0
-3490z m3072 1201 c233 -462 426 -837 429 -833 3 4 194 378 424 832 229 454
420 828 424 833 4 4 215 6 469 5 l462 -3 -675 -1243 -675 -1242 0 -795 0 -795
-430 0 -430 0 0 775 0 775 -675 1257 c-371 691 -675 1260 -675 1264 0 5 209 9
464 9 l465 0 423 -839z"/>
</g>
</svg>
